<?xml version="1.0" encoding="UTF-8" standalone="no"?>
<svg
   version="1.1"
   style="display:block"
   viewBox="0 0 2047.6083 2048"
   width="699"
   height="699"
   preserveAspectRatio="none"
   id="svg2"
   sodipodi:docname="favicon.svg"
   inkscape:version="1.4.2 (ebf0e940d0, 2025-05-08)"
   inkscape:export-filename="icon-192.png"
   inkscape:export-xdpi="26.369099"
   inkscape:export-ydpi="26.369099"
   xmlns:inkscape="http://www.inkscape.org/namespaces/inkscape"
   xmlns:sodipodi="http://sodipodi.sourceforge.net/DTD/sodipodi-0.dtd"
   xmlns="http://www.w3.org/2000/svg"
   xmlns:svg="http://www.w3.org/2000/svg">
  <defs
     id="defs2" />
  <sodipodi:namedview
     id="namedview2"
     pagecolor="#ffffff"
     bordercolor="#666666"
     borderopacity="1.0"
     inkscape:showpageshadow="2"
     inkscape:pageopacity="0.0"
     inkscape:pagecheckerboard="0"
     inkscape:deskcolor="#d1d1d1"
     inkscape:zoom="2.1344778"
     inkscape:cx="325.37232"
     inkscape:cy="283.67594"
     inkscape:window-width="2502"
     inkscape:window-height="1625"
     inkscape:window-x="0"
     inkscape:window-y="0"
     inkscape:window-maximized="0"
     inkscape:current-layer="svg2" />
  <path
     fill="rgb(73,153,81)"
     d="m 1002.3751,6.55008 c 20.259,-1.06873 41.525,-0.71779 61.901,-0.5974 139.848,0.82627 278.828,23.72492 417.388,40.55722 142.37,17.2947 285.08,33.3853 428.74,25.2444 13.02,-0.7374 29.22,3.3853 38.71,12.5206 8.07,7.6271 12.53,18.2021 12.6,29.3721 1.01,60.986 -5.46,121.89 -2.68,182.908 2.05,133.721 14.44,268.446 13.37,402.014 -0.88,57.377 -3.66,114.708 -8.32,171.901 -3.33,38.825 -8.11,90.7 -14.94,128.938 -24.84,136.962 -73.13,273.092 -152.24,388.442 -30.62,44.66 -75.73,100.05 -114.01,137.91 -154.24,152.55 -360.04,260.38 -577.41,281.78 -73.538,7.24 -154.35995,5.1 -227.43695,-4.72 -42.964,-5.83 -85.156,-16.54 -127.371,-25.96 -36.062,-8.05 -87.812,-27.58 -123.899,-27.91 -38.924,4.24 -75.257,33.41 -107.642,52.78 -96.933,57.97 -184.62,128.58 -275.974,194.5 -28.093,20.27 -77.4792,68.26 -111.3591,36.15 -9.6465,-9.05 -14.0973,-22.35 -11.8458,-35.39 3.3333,-19.93 31.8851,-76.07 41.4635,-97.58 40.4074,-89.11 78.1264,-179.42 113.1054,-270.8 11.818,-30.58 28.226,-68.44 34.234,-100.33 1.175,-6.24 0.244,-13.35 -2.965,-18.88 -12.097,-20.3 -28.91,-38.17 -42.859,-57.14 C 153.87245,1304 76.190258,1131.11 74.361328,944.525 74.030668,910.792 73.788088,876.724 76.567148,842.755 92.188248,643.587 176.45815,456.016 314.99015,312.067 493.75115,121.993 741.50015,11.8779 1002.3751,6.55008 Z"
     id="path1"
     style="fill:#4a7c4a;fill-opacity:1" />
  <path
     fill="#d7f5c0"
     d="m 1698.3989,252.78731 c 34.8528,-4.15903 46.1699,42.56853 22.856,60.3142 -33.0361,25.1585 -72.7423,45.21265 -108.3204,66.826 -91.1722,55.12188 -178.2403,116.74108 -260.5525,184.3812 -13.926,11.23482 -31.4018,24.81994 -44.5673,37.22264 -2.1549,2.03291 -2.2899,4.61467 -1.8829,7.29198 9.2192,2.74848 68.2202,2.86559 81.5878,3.1793 58.0493,1.74596 116.0641,4.37769 174.0341,7.89331 30.0936,1.66095 61.0849,2.60611 90.7643,6.33564 18.3004,3.29108 39.7429,10.69389 40.4039,32.52368 0.5194,17.15954 -10.6389,27.09983 -27.2582,27.85305 -35.9272,1.62839 -73.3042,-1.32061 -109.3324,-2.61891 l -217.9848,-6.97397 c -29.3167,-0.70137 -80.3057,-3.06069 -108.827,-1.16353 -13.8624,13.16698 -30.3016,21.93728 -45.7872,36.09075 -83.8425,76.12412 -163.6925,156.53721 -239.22463,240.91853 -13.00422,14.71524 -37.58366,39.60405 -43.98475,56.90532 0.26335,0.075 0.52653,0.141 0.78971,0.2063 l 1.32274,0.317 c 12.83655,3.1864 46.41407,2.7502 61.24539,3.0413 22.05539,0.5751 44.10364,1.3704 66.14174,2.3862 107.8353,4.6984 215.6153,10.6279 323.3165,17.779 56.2406,3.5588 111.8016,5.4192 168.3841,12.5326 22.7136,2.8639 52.4673,18.2869 32.3173,47.123 -7.2304,10.3478 -39.9438,11.5891 -53.3759,12.1636 -32.4104,1.4059 -66.3727,-0.7215 -99.1358,-2.3299 -40.5971,-1.7816 -81.1885,-3.8034 -121.7542,-6.0656 l -316.05398,-14.2552 c -21.77894,-1.0099 -43.54128,-2.3304 -65.28205,-3.961 -18.85053,-1.4107 -40.27045,-3.4576 -58.93892,-3.0918 -11.10418,15.8464 -28.61108,35.2049 -41.08593,51.6553 -38.49145,51.6596 -75.91192,104.1108 -112.23511,157.313 -19.67163,28.4478 -54.07411,76.7456 -69.37499,106.6873 11.14657,2.2857 35.93871,2.9931 48.45297,3.6447 29.78634,1.6502 59.58943,3.0003 89.40247,4.0601 91.82046,4.2679 183.68232,7.5848 275.57084,9.9613 36.123,0.7194 72.239,1.7191 108.3498,2.999 17.9245,0.6771 36.4182,0.7244 54.2012,3.0343 7.2175,0.9442 16.9603,2.7344 22.4776,7.6888 4.9788,4.4738 7.0772,11.2381 7.2113,17.7769 0.175,7.738 -2.4644,15.2453 -8.0498,20.7136 -19.8442,19.4194 -134.0115,13.2313 -164.1869,12.6779 -46.5251,-1.668 -95.19129,-1.7686 -142.08693,-3.0001 -112.43663,-2.2077 -224.81613,-6.7567 -337.06512,-13.6285 -8.60662,10.642 -17.84911,31.0964 -25.13636,39.2849 -22.50935,24.8767 -59.15062,116.3602 -103.24324,90.176 -32.74104,-19.4315 12.80471,-82.4262 26.34607,-106.3062 40.47591,-71.7675 84.70331,-141.3601 132.49833,-208.4847 11.42363,-16.2818 23.00917,-32.4565 34.75695,-48.504 6.15843,-8.3388 14.18989,-18.0103 19.61205,-26.4164 l 0.60749,-0.9508 c 0.78906,-12.2655 -1.42724,-31.3498 -2.62396,-43.9307 -4.49125,-47.1989 -13.85467,-93.5625 -18.82357,-140.7929 -11.0666,-105.44292 -10.84501,-212.23805 -7.84329,-318.13159 0.97186,-34.28818 2.50643,-70.89155 7.06328,-104.98027 1.62423,-12.15022 7.73898,-31.24486 13.44581,-42.02112 20.57262,-12.35098 43.88928,-5.63898 45.7724,20.31211 4.01252,44.81079 -0.98987,89.36189 -0.81802,133.99569 0.49642,128.90896 0.998,259.20306 24.61238,386.36118 0.58389,3.1403 2.39915,7.6093 5.32115,9.1885 8.36736,-1.6563 42.64001,-50.0019 50.06887,-59.4732 52.15553,-66.04427 107.38483,-129.60702 165.50664,-190.47185 l 63.92277,-66.883 c 5.8982,-6.1659 35.4187,-35.56468 36.0943,-42.07346 4.0105,-38.63089 2.37,-77.27514 2.0483,-116.05143 -0.096,-34.86462 0.6385,-69.72776 2.2029,-104.55739 2.7697,-56.09388 6.5675,-113.3379 17.3147,-168.49389 3.455,-17.73502 8.4634,-53.68892 24.4191,-63.70096 6.2803,-3.94024 15.8699,-4.09764 22.8617,-2.34138 8.4884,2.13016 14.7571,8.30466 16.6873,16.89229 4.7157,20.91787 -5.2906,99.73354 -7.4659,124.6713 -2.6843,30.72254 -14.0964,220.97173 -3.3381,238.54362 5.6344,1.34683 22.9582,-14.62999 28.0654,-18.8548 67.4836,-56.54357 135.7128,-112.19605 204.6681,-166.94305 34.3154,-26.9281 73.4932,-57.19859 109.2627,-82.17677 45.8683,-32.02054 98.0492,-62.22001 146.1799,-90.68849 24.8375,-14.6918 71.4968,-43.21362 97.4718,-50.60514 z"
     id="path2" />
</svg>
