<?xml version="1.0" encoding="UTF-8" standalone="no"?>
<svg
   version="1.1"
   style="display:block"
   viewBox="0 0 2047.6083 2048"
   width="699"
   height="699"
   preserveAspectRatio="none"
   id="svg2"
   sodipodi:docname="Garden Assist.svg"
   inkscape:version="1.4.2 (ebf0e940d0, 2025-05-08)"
   inkscape:export-filename="icon-512.png"
   inkscape:export-xdpi="70.317596"
   inkscape:export-ydpi="70.317596"
   xmlns:inkscape="http://www.inkscape.org/namespaces/inkscape"
   xmlns:sodipodi="http://sodipodi.sourceforge.net/DTD/sodipodi-0.dtd"
   xmlns="http://www.w3.org/2000/svg"
   xmlns:svg="http://www.w3.org/2000/svg">
  <defs
     id="defs2" />
  <sodipodi:namedview
     id="namedview2"
     pagecolor="#ffffff"
     bordercolor="#666666"
     borderopacity="1.0"
     inkscape:showpageshadow="2"
     inkscape:pageopacity="0.0"
     inkscape:pagecheckerboard="0"
     inkscape:deskcolor="#d1d1d1"
     inkscape:zoom="2.1344778"
     inkscape:cx="306.86663"
     inkscape:cy="315.53385"
     inkscape:window-width="1829"
     inkscape:window-height="1029"
     inkscape:window-x="0"
     inkscape:window-y="0"
     inkscape:window-maximized="0"
     inkscape:current-layer="svg2" />
  <path
     fill="rgb(73,153,81)"
     d="m 1010.9896,425.25549 c 11.9258,-0.62912 24.4444,-0.42254 36.4392,-0.35166 82.3239,0.4864 164.1369,13.96608 245.7027,23.87471 83.8086,10.18083 167.8174,19.65283 252.3853,14.86055 7.6644,-0.43409 17.2009,1.99283 22.7873,7.37048 4.7506,4.48983 7.376,10.71498 7.4173,17.29039 0.5945,35.90048 -3.2142,71.75269 -1.5777,107.672 1.2068,78.71721 8.5003,158.02544 7.8705,236.65258 -0.5181,33.77598 -2.1545,67.52487 -4.8978,101.19253 -1.9602,22.85502 -4.7741,53.39215 -8.7946,75.90163 -14.6225,80.6251 -43.0493,160.7604 -89.6188,228.6632 -18.025,26.2898 -44.5798,58.8962 -67.114,81.1831 -90.7961,89.8013 -211.9439,153.2773 -339.9025,165.8747 -43.2893,4.262 -90.86666,3.0023 -133.88472,-2.7785 -25.29151,-3.4319 -50.12856,-9.7366 -74.97916,-15.2818 -21.22853,-4.7387 -51.69207,-16.2354 -72.93532,-16.4297 -22.9133,2.4959 -44.30135,19.6674 -63.36534,31.07 -57.06131,34.1249 -108.6798,75.6908 -162.45693,114.4958 -16.53743,11.9322 -45.60948,40.1824 -65.55347,21.2802 -5.67858,-5.3273 -8.29863,-13.1566 -6.97324,-20.8329 1.9622,-11.7321 18.76971,-44.78 24.40821,-57.4421 23.78652,-52.4563 45.99046,-105.6188 66.58147,-159.4112 6.95687,-18.0014 16.61572,-40.2885 20.15244,-59.0611 0.69169,-3.6733 0.14363,-7.8587 -1.74539,-11.1141 -7.12112,-11.9499 -17.01838,-22.4694 -25.2297,-33.6364 -64.20167,-87.2758 -109.93066,-189.0505 -111.00729,-298.88706 -0.19464,-19.85751 -0.33745,-39.91224 1.29849,-59.90869 C 475.19219,800.25842 524.79914,689.84147 606.34843,605.10338 711.57922,493.21299 857.42101,428.39181 1010.9896,425.25549 Z"
     id="path1"
     style="fill:#2d4a2d;fill-opacity:1;stroke-width:0.588668" />
  <path
     fill="#d7f5c0"
     d="m 1426.8323,559.55411 c 20.5166,-2.44828 27.1787,25.05871 13.4545,35.50501 -19.4473,14.80999 -42.8211,26.61522 -63.7646,39.33829 -53.6702,32.44847 -104.9243,68.72169 -153.3789,108.53923 -8.1977,6.61357 -18.4852,14.61069 -26.2353,21.91175 -1.2685,1.19672 -1.3479,2.71651 -1.1084,4.29256 5.4271,1.61794 40.1591,1.68688 48.0281,1.87155 34.1718,1.02779 68.3231,2.577 102.4483,4.64653 17.715,0.97774 35.9586,1.53413 53.4299,3.72958 10.7729,1.93736 23.3953,6.29515 23.7845,19.14564 0.3057,10.10126 -6.2628,15.95279 -16.0461,16.39618 -21.1492,0.95859 -43.1517,-0.7774 -64.3603,-1.54166 l -128.3206,-4.10535 c -17.2578,-0.41287 -47.2734,-1.80172 -64.0629,-0.68494 -8.1604,7.75098 -17.8376,12.91377 -26.9534,21.24545 -49.3554,44.8118 -96.3606,92.14838 -140.82386,141.82091 -7.65515,8.66239 -22.12426,23.31361 -25.89238,33.49826 0.15503,0.045 0.30995,0.083 0.46486,0.1215 l 0.77867,0.1866 c 7.55646,1.8758 27.32245,1.619 36.05317,1.7904 12.98324,0.3385 25.96234,0.8066 38.93544,1.4046 63.4792,2.7659 126.9257,6.2564 190.3259,10.4659 33.107,2.0949 65.814,3.1901 99.1224,7.3776 13.3707,1.6858 30.8856,10.7649 19.024,27.7398 -4.2562,6.0914 -23.5136,6.8221 -31.4207,7.1603 -19.0789,0.8275 -39.0713,-0.4248 -58.3579,-1.3716 -23.8982,-1.0487 -47.7931,-2.2389 -71.6728,-3.5706 l -186.05067,-8.3917 c -12.82056,-0.5944 -25.63134,-1.3717 -38.42943,-2.3316 -11.09669,-0.8304 -23.7059,-2.0354 -34.69542,-1.82 -6.53667,9.3282 -16.84241,20.724 -24.18595,30.4078 -22.65867,30.4103 -44.68688,61.2866 -66.06916,92.605 -11.58005,16.7462 -31.83167,45.1777 -40.83881,62.8034 6.56163,1.3456 21.15595,1.7619 28.52269,2.1455 17.53425,0.9714 35.07836,1.7661 52.62834,2.39 54.05172,2.5124 108.12781,4.465 162.21961,5.8639 21.2644,0.4235 42.5248,1.0119 63.782,1.7654 10.5516,0.3986 21.4381,0.4264 31.9065,1.7863 4.2487,0.5558 9.984,1.6096 13.2318,4.5261 2.9309,2.6336 4.1662,6.6155 4.245,10.4647 0.1031,4.5551 -1.4506,8.9744 -4.7387,12.1934 -11.6816,11.4315 -78.8882,7.7888 -96.6514,7.463 -27.3879,-0.9818 -56.036,-1.0411 -83.64195,-1.766 -66.18779,-1.2996 -132.34194,-3.9775 -198.41928,-8.0227 -5.06643,6.2646 -10.50719,18.3055 -14.79695,23.1259 -13.25053,14.644 -34.82005,68.4973 -60.77594,53.0836 -19.27359,-11.4388 7.53772,-48.5216 15.50908,-62.5791 23.82684,-42.2472 49.86208,-83.2141 77.99745,-122.7281 6.72472,-9.5846 13.54475,-19.1061 20.46028,-28.5527 3.62528,-4.9089 8.35313,-10.6021 11.54498,-15.5505 l 0.35761,-0.5597 c 0.46449,-7.2204 -0.84016,-18.4546 -1.54463,-25.8606 -2.64386,-27.7844 -8.15579,-55.0772 -11.08084,-82.8802 -6.51454,-62.07083 -6.3841,-124.93764 -4.61708,-187.27373 0.5721,-20.18435 1.47546,-41.73155 4.15792,-61.79847 0.95613,-7.15244 4.55569,-18.39284 7.91512,-24.73648 12.11043,-7.27062 25.83618,-3.31948 26.94472,11.95708 2.36203,26.37867 -0.5827,52.60444 -0.48153,78.87891 0.29221,75.88452 0.58749,152.58442 14.48849,227.43819 0.34372,1.8487 1.41231,4.4794 3.1324,5.409 4.92558,-0.975 25.10078,-29.4345 29.47391,-35.0099 30.70227,-38.87811 63.21396,-76.29542 97.42838,-112.12457 l 37.62926,-39.37186 c 3.4721,-3.62965 20.8498,-20.93577 21.2475,-24.76727 2.3608,-22.74076 1.3952,-45.48937 1.2058,-68.31571 -0.057,-20.52367 0.3758,-41.04646 1.2968,-61.54953 1.6304,-33.02065 3.866,-66.71834 10.1926,-99.18688 2.0339,-10.44004 4.9821,-31.60493 14.3747,-37.49868 3.6971,-2.31949 9.3422,-2.41215 13.458,-1.37829 4.9968,1.25394 8.687,4.88867 9.8231,9.94393 2.7761,12.31366 -3.1144,58.70989 -4.3949,73.38994 -1.58,18.08536 -8.298,130.07887 -1.9649,140.42288 3.3168,0.79283 13.5146,-8.6122 16.5211,-11.09921 39.7254,-33.28536 79.8897,-66.04616 120.4814,-98.27395 20.2005,-15.85169 43.2631,-33.67095 64.3194,-48.37478 27.0013,-18.84947 57.7185,-36.62691 86.0515,-53.38538 14.6209,-8.64859 42.0878,-25.43845 57.3785,-29.7896 z"
     id="path2"
     style="stroke-width:0.588668" />
</svg>
