<?xml version="1.0" encoding="UTF-8" standalone="no"?>
<svg
   version="1.1"
   style="display:block"
   viewBox="0 0 2047.6083 2048"
   width="699"
   height="699"
   preserveAspectRatio="none"
   id="svg2"
   sodipodi:docname="Garden Assist.svg"
   inkscape:version="1.4.2 (ebf0e940d0, 2025-05-08)"
   inkscape:export-filename="icon-512.png"
   inkscape:export-xdpi="70.317596"
   inkscape:export-ydpi="70.317596"
   xmlns:inkscape="http://www.inkscape.org/namespaces/inkscape"
   xmlns:sodipodi="http://sodipodi.sourceforge.net/DTD/sodipodi-0.dtd"
   xmlns="http://www.w3.org/2000/svg"
   xmlns:svg="http://www.w3.org/2000/svg">
  <defs
     id="defs2" />
  <sodipodi:namedview
     id="namedview2"
     pagecolor="#ffffff"
     bordercolor="#666666"
     borderopacity="1.0"
     inkscape:showpageshadow="2"
     inkscape:pageopacity="0.0"
     inkscape:pagecheckerboard="0"
     inkscape:deskcolor="#d1d1d1"
     inkscape:zoom="2.1344778"
     inkscape:cx="325.37232"
     inkscape:cy="293.51441"
     inkscape:window-width="2502"
     inkscape:window-height="1625"
     inkscape:window-x="0"
     inkscape:window-y="0"
     inkscape:window-maximized="0"
     inkscape:current-layer="svg2" />
  <path
     fill="rgb(73,153,81)"
     d="m 1005.5165,159.23875 c 17.2202,-0.90842 35.2963,-0.61012 52.6159,-0.50779 118.8708,0.70233 237.0038,20.16618 354.7798,34.47363 121.0145,14.7005 242.318,28.37751 364.429,21.45774 11.067,-0.62679 24.837,2.87751 32.9035,10.64251 6.8595,6.48304 10.6505,15.47179 10.71,24.96629 0.8585,51.8381 -4.641,103.6065 -2.278,155.4718 1.7425,113.66285 12.274,228.1791 11.3645,341.7119 -0.748,48.77045 -3.111,97.5018 -7.072,146.11585 -2.8305,33.00125 -6.8935,77.095 -12.699,109.59732 -21.114,116.4177 -62.1605,232.1282 -129.404,330.1757 -26.027,37.961 -64.3705,85.0425 -96.9085,117.2235 -131.104,129.6675 -306.034,221.323 -490.7985,239.513 -62.5073,6.154 -131.20597,4.335 -193.32142,-4.012 -36.5194,-4.9555 -72.3826,-14.059 -108.26535,-22.066 -30.6527,-6.8425 -74.6402,-23.443 -105.31415,-23.7235 -33.0854,3.604 -63.96845,28.3985 -91.4957,44.863 -82.39305,49.2745 -156.927,109.293 -234.5779,165.325 -23.87905,17.2295 -65.85732,58.021 -94.65523,30.7275 -8.19953,-7.6925 -11.98271,-18.9975 -10.06893,-30.0815 2.8333,-16.9405 27.10233,-64.6595 35.24397,-82.943 34.34629,-75.7435 66.40744,-152.507 96.13959,-230.18 10.0453,-25.993 23.9921,-58.174 29.0989,-85.2805 0.99875,-5.304 0.2074,-11.3475 -2.52025,-16.048 -10.28245,-17.255 -24.5735,-32.4445 -36.43015,-48.569 -92.70329,-126.021 -158.73316,-272.9775 -160.28775,-431.57477 -0.28106,-28.67305 -0.48725,-57.63085 1.87495,-86.5045 13.27793,-169.2928 84.90735,-328.72815 202.65955,-451.0848 151.94685,-161.5629 362.5335,-255.16074 584.27717,-259.68938 z"
     id="path1"
     style="fill:#2d4a2d;fill-opacity:1;stroke-width:0.85" />
  <path
     fill="#d7f5c0"
     d="m 1605.968,353.15777 c 29.6248,-3.53517 39.2444,36.18325 19.4276,51.26707 -28.0807,21.38473 -61.831,38.43075 -92.0724,56.8021 -77.4963,46.8536 -151.5042,99.22992 -221.4696,156.72402 -11.8371,9.5496 -26.6915,21.09695 -37.8822,31.63925 -1.8317,1.72797 -1.9464,3.92246 -1.6005,6.19818 7.8363,2.33621 57.9872,2.43575 69.3497,2.7024 49.3419,1.48407 98.6544,3.72104 147.9289,6.70932 25.5796,1.4118 51.9222,2.21519 77.1497,5.38529 15.5553,2.79742 33.7815,9.08981 34.3433,27.64513 0.4415,14.58561 -9.0431,23.03485 -23.1695,23.67509 -30.5381,1.38413 -62.3085,-1.12252 -92.9325,-2.22607 l -185.2871,-5.92788 c -24.9192,-0.59616 -68.2598,-2.60158 -92.5029,-0.989 -11.7831,11.19194 -25.7564,18.64669 -38.9191,30.67714 -71.2662,64.7055 -139.1387,133.05663 -203.34098,204.78075 -11.05359,12.50795 -31.94611,33.66344 -37.38704,48.36952 0.22385,0.0638 0.44755,0.11985 0.67125,0.17536 l 1.12433,0.26945 c 10.91107,2.70844 39.45196,2.33767 52.05859,2.5851 18.74705,0.48881 37.48805,1.16481 56.22045,2.02831 91.66,3.9936 183.273,9.0337 274.819,15.1121 47.8046,3.025 95.0314,4.6063 143.1265,10.6527 19.3066,2.4343 44.5972,15.5439 27.4697,40.0546 -6.1458,8.7956 -33.9522,9.8507 -45.3695,10.339 -27.5488,1.195 -56.4168,-0.6132 -84.2654,-1.9804 -34.5075,-1.5143 -69.0102,-3.2329 -103.4911,-5.1557 l -268.64586,-12.117 c -18.5121,-0.8584 -37.01009,-1.9808 -55.48974,-3.3668 -16.02295,-1.1991 -34.22988,-2.939 -50.09808,-2.628 -9.43856,13.4694 -24.31942,29.9241 -34.92304,43.907 -32.71774,43.9106 -64.52514,88.4941 -95.39985,133.716 -16.72088,24.1806 -45.96299,65.2338 -58.96874,90.6842 9.47459,1.9429 30.5479,2.5442 41.18503,3.098 25.31838,1.4027 50.65101,2.5503 75.9921,3.4511 78.04739,3.6277 156.12997,6.4471 234.23518,8.4671 30.7046,0.6115 61.4032,1.4612 92.0974,2.5492 15.2358,0.5755 30.9554,0.6157 46.071,2.5791 6.1349,0.8026 14.4162,2.3242 19.1059,6.5355 4.232,3.8027 6.0157,9.5524 6.1296,15.1104 0.1488,6.5773 -2.0947,12.9585 -6.8423,17.6065 -16.8676,16.5065 -113.9098,11.2466 -139.5589,10.7762 -39.5463,-1.4178 -80.91255,-1.5033 -120.77384,-2.5501 -95.57114,-1.8765 -191.09371,-5.7432 -286.50535,-11.5842 -7.31563,9.0457 -15.17175,26.432 -21.36591,33.3922 -19.13295,21.1452 -50.27803,98.9062 -87.75675,76.6496 -27.82989,-16.5168 10.884,-70.0623 22.39416,-90.3603 34.40452,-61.0024 71.99781,-120.1561 112.62358,-177.212 9.71008,-13.8395 19.55779,-27.588 29.5434,-41.2284 5.23467,-7.088 12.06141,-15.3087 16.67025,-22.4539 l 0.51636,-0.8082 c 0.6707,-10.4257 -1.21315,-26.6473 -2.23036,-37.3411 -3.81757,-40.1191 -11.77647,-79.5281 -16.00004,-119.67396 -9.40661,-89.62648 -9.21826,-180.40234 -6.66679,-270.41185 0.82608,-29.14496 2.13046,-60.25782 6.00378,-89.23323 1.3806,-10.32769 6.57814,-26.55813 11.42894,-35.71796 17.48673,-10.49833 37.30589,-4.79313 38.90654,17.2653 3.41064,38.08917 -0.84139,75.9576 -0.69531,113.89633 0.42195,109.57262 0.8483,220.32261 20.92052,328.40697 0.49631,2.6693 2.03928,6.4679 4.52298,7.8103 7.11225,-1.4079 36.244,-42.5017 42.55854,-50.5523 44.3322,-56.13759 91.2771,-110.16592 140.68064,-161.90103 l 54.33436,-56.85055 c 5.0135,-5.24101 30.1059,-30.22998 30.6801,-35.76244 3.409,-32.83626 2.0145,-65.68387 1.7411,-98.64372 -0.082,-29.63492 0.5427,-59.26859 1.8725,-88.87378 2.3542,-47.6798 5.5823,-96.33721 14.7175,-143.2198 2.9367,-15.07477 7.1939,-45.63559 20.7562,-54.14582 5.3383,-3.3492 13.4894,-3.48299 19.4324,-1.99017 7.2152,1.81063 12.5436,7.05896 14.1842,14.35844 4.0084,17.78019 -4.497,84.77351 -6.346,105.97061 -2.2816,26.11416 -11.9819,187.82597 -2.8374,202.76208 4.7893,1.1448 19.5145,-12.4355 23.8556,-16.02658 57.3611,-48.06204 115.3559,-95.36665 173.9679,-141.9016 29.1681,-22.88888 62.4692,-48.6188 92.8733,-69.85025 38.9881,-27.21746 83.3418,-52.88701 124.2529,-77.08522 21.1119,-12.48803 60.7723,-36.73158 82.8511,-43.01437 z"
     id="path2"
     style="stroke-width:0.85" />
</svg>
