<?xml version="1.0" encoding="UTF-8" standalone="no"?>
<svg
   version="1.1"
   style="display:block"
   viewBox="0 0 2047.6083 2048"
   width="699"
   height="699"
   preserveAspectRatio="none"
   id="svg2"
   sodipodi:docname="Garden Assist.svg"
   inkscape:version="1.4.2 (ebf0e940d0, 2025-05-08)"
   inkscape:export-filename="icon-192.png"
   inkscape:export-xdpi="26.369099"
   inkscape:export-ydpi="26.369099"
   xmlns:inkscape="http://www.inkscape.org/namespaces/inkscape"
   xmlns:sodipodi="http://sodipodi.sourceforge.net/DTD/sodipodi-0.dtd"
   xmlns="http://www.w3.org/2000/svg"
   xmlns:svg="http://www.w3.org/2000/svg">
  <defs
     id="defs2" />
  <sodipodi:namedview
     id="namedview2"
     pagecolor="#ffffff"
     bordercolor="#666666"
     borderopacity="1.0"
     inkscape:showpageshadow="2"
     inkscape:pageopacity="0.0"
     inkscape:pagecheckerboard="0"
     inkscape:deskcolor="#d1d1d1"
     inkscape:zoom="2.1344778"
     inkscape:cx="325.37232"
     inkscape:cy="331.9313"
     inkscape:window-width="2502"
     inkscape:window-height="1625"
     inkscape:window-x="0"
     inkscape:window-y="0"
     inkscape:window-maximized="0"
     inkscape:current-layer="svg2" />
  <path
     fill="rgb(73,153,81)"
     d="m 1008.0978,284.69794 c 14.7232,-0.7767 30.1782,-0.52165 44.9866,-0.43416 101.6345,0.6005 202.6382,17.24208 303.3367,29.47496 103.4673,12.56892 207.1819,24.26276 311.5868,18.34636 9.4622,-0.53591 21.2356,2.46027 28.1324,9.09935 5.8649,5.543 9.1062,13.22838 9.1571,21.34617 0.734,44.32158 -3.9681,88.58356 -1.9477,132.92839 1.4898,97.18174 10.4942,195.09313 9.7167,292.16368 -0.6396,41.69874 -2.6599,83.36404 -6.0466,124.92905 -2.4201,28.21607 -5.894,65.91623 -10.8576,93.70576 -18.0525,99.5371 -53.1473,198.4695 -110.6405,282.3002 -22.2531,32.4566 -55.0368,72.7113 -82.8568,100.226 -112.0939,110.8658 -261.6591,189.2312 -419.6327,204.7836 -53.4437,5.2617 -112.18107,3.7065 -165.28979,-3.4302 -31.22409,-4.2369 -61.88712,-12.0205 -92.56687,-18.8664 -26.20806,-5.8503 -63.81737,-20.0438 -90.0436,-20.2836 -28.28802,3.0814 -54.69302,24.2807 -78.22882,38.3579 -70.44606,42.1296 -134.17259,93.4455 -200.56411,141.3529 -20.41658,14.7311 -56.308,49.6079 -80.93021,26.2719 -7.0106,-6.577 -10.24522,-16.2428 -8.60894,-25.7196 2.42247,-14.4842 23.17249,-55.2839 30.13359,-70.9163 29.36608,-64.7607 56.77836,-130.3935 82.19935,-196.8039 8.58873,-22.224 20.51324,-49.7388 24.87956,-72.9149 0.85393,-4.5349 0.17732,-9.702 -2.15481,-13.721 -8.7915,-14.753 -21.01034,-27.74 -31.14778,-41.5265 -79.26132,-107.7479 -135.71685,-233.3957 -137.04603,-368.99639 -0.2403,-24.51545 -0.4166,-49.27437 1.60308,-73.96135 C 346.61945,747.66452 407.86261,611.3473 508.54074,506.73236 638.45529,368.59608 818.50688,288.56993 1008.0978,284.69794 Z"
     id="path1"
     style="fill:#2d4a2d;fill-opacity:1;stroke-width:0.72675" />
  <path
     fill="#d7f5c0"
     d="m 1521.4838,450.4987 c 25.3291,-3.02257 33.554,30.93668 16.6105,43.83335 -24.009,18.28394 -52.8655,32.85829 -78.7218,48.56579 -66.2594,40.05983 -129.5361,84.84159 -189.3566,133.99904 -10.1206,8.16491 -22.8212,18.03789 -32.3892,27.05155 -1.5662,1.47743 -1.6642,3.35371 -1.3685,5.29946 6.7001,1.99745 49.5791,2.08256 59.294,2.31055 42.1874,1.26888 84.3495,3.18148 126.4793,5.73646 21.8705,1.20709 44.3934,1.89399 65.9629,4.60442 13.2999,2.3918 28.8832,7.77179 29.3636,23.63659 0.3774,12.4707 -7.7319,19.6948 -19.81,20.2422 -26.1101,1.18344 -53.2737,-0.95976 -79.4572,-1.90329 l -158.4205,-5.06833 c -21.3059,-0.50972 -58.3622,-2.22435 -79.09,-0.8456 -10.0745,9.56911 -22.0217,15.94292 -33.2758,26.22895 -60.9326,55.32321 -118.9637,113.76342 -173.85658,175.08755 -9.45082,10.69429 -27.31392,28.78223 -31.96592,41.35591 0.1914,0.055 0.38266,0.1025 0.57392,0.15 l 0.96131,0.2303 c 9.32896,2.3158 33.73142,1.9988 44.51009,2.2103 16.02868,0.418 32.05228,0.9959 48.06848,1.7342 78.3693,3.4146 156.6984,7.7239 234.9702,12.9208 40.8729,2.5864 81.2519,3.9385 122.3733,9.1081 16.5071,2.0813 38.1305,13.2901 23.4865,34.2467 -5.2546,7.5202 -29.0291,8.4223 -38.791,8.8399 -23.5542,1.0217 -48.2363,-0.5244 -72.0468,-1.6933 -29.504,-1.2947 -59.0038,-2.7641 -88.4849,-4.4081 l -229.69224,-10.3601 c -15.82784,-0.7339 -31.64362,-1.6935 -47.44373,-2.8786 -13.69962,-1.0252 -29.26655,-2.5128 -42.83386,-2.2469 -8.06996,11.5163 -20.7931,25.5851 -29.8592,37.5405 -27.97366,37.5435 -55.16899,75.6625 -81.56687,114.3272 -14.29635,20.6743 -39.29835,55.7749 -50.41827,77.535 8.10077,1.6612 26.11845,2.1752 35.2132,2.6488 21.64721,1.1993 43.30661,2.1804 64.97325,2.9506 66.73051,3.1017 133.49112,5.5123 200.27112,7.2394 26.2524,0.5228 52.4997,1.2493 78.7432,2.1795 13.0267,0.4921 26.4669,0.5264 39.3907,2.2052 5.2454,0.6862 12.3259,1.9872 16.3356,5.5879 3.6184,3.2513 5.1434,8.1672 5.2408,12.9193 0.1272,5.6236 -1.7909,11.0796 -5.8502,15.0536 -14.4218,14.113 -97.3929,9.6158 -119.3228,9.2136 -33.8122,-1.2122 -69.18026,-1.2853 -103.26167,-2.1803 -81.71332,-1.6044 -163.38512,-4.9104 -244.96208,-9.9045 -6.25486,7.7341 -12.97184,22.5994 -18.26785,28.5504 -16.35867,18.0791 -42.98771,84.5647 -75.03202,65.5354 -23.79455,-14.1219 9.30582,-59.9033 19.14701,-77.2581 29.41586,-52.157 61.55813,-102.7335 96.29316,-151.5163 8.30212,-11.8327 16.72191,-23.5877 25.2596,-35.2502 4.47565,-6.0603 10.31251,-13.089 14.25307,-19.1981 l 0.44149,-0.691 c 0.57344,-8.9141 -1.03724,-22.7835 -1.90696,-31.9267 -3.26402,-34.3018 -10.06888,-67.9965 -13.68004,-102.3212 -8.04265,-76.63066 -7.8816,-154.24402 -5.7001,-231.20215 0.7063,-24.91894 1.82155,-51.52043 5.13323,-76.29441 1.18041,-8.83017 5.62431,-22.7072 9.77175,-30.53886 14.95115,-8.97607 31.89653,-4.09812 33.26509,14.76183 2.91609,32.56625 -0.71939,64.94375 -0.59449,97.38136 0.36076,93.6846 0.7253,188.37584 17.88704,280.78793 0.42434,2.2823 1.74359,5.5301 3.86715,6.6778 6.08097,-1.2037 30.98862,-36.3389 36.38755,-43.2222 37.90403,-47.99762 78.04192,-94.19183 120.28195,-138.42535 l 46.45582,-48.60723 c 4.2866,-4.48106 25.7406,-25.84663 26.2315,-30.57688 2.9147,-28.07501 1.7225,-56.15971 1.4887,-84.34038 -0.07,-25.33786 0.464,-50.67464 1.601,-75.98708 2.0129,-40.76623 4.7728,-82.36832 12.5834,-122.45293 2.511,-12.88894 6.1508,-39.01843 17.7466,-46.29468 4.5643,-2.86356 11.5335,-2.97795 16.6147,-1.70159 6.1689,1.54808 10.7248,6.03541 12.1274,12.27646 3.4273,15.20206 -3.8449,72.48135 -5.4258,90.60487 -1.9507,22.32761 -10.2445,160.5912 -2.4259,173.36158 4.0949,0.9788 16.6848,-10.63235 20.3965,-13.70273 49.0437,-41.09304 98.6293,-81.53848 148.7425,-121.32586 24.9388,-19.56999 53.4112,-41.56908 79.4067,-59.72196 33.3349,-23.27094 71.2573,-45.2184 106.2363,-65.90787 18.0506,-10.67727 51.9603,-31.4055 70.8377,-36.77729 z"
     id="path2"
     style="stroke-width:0.72675" />
</svg>
